<svg xmlns="http://www.w3.org/2000/svg" width="15.384" height="20" viewBox="0 0 15.384 20">
  <g id="vuesax_bulk_notification" data-name="vuesax/bulk/notification" transform="translate(-175.311 -190)">
    <g id="notification">
      <path id="Vector" d="M15.029,11.59l-1-1.66a3.715,3.715,0,0,1-.4-1.48V5.92a5.92,5.92,0,0,0-11.84,0V8.45a3.626,3.626,0,0,1-.4,1.47L.379,11.59a2.337,2.337,0,0,0,1.31,3.53,18.7,18.7,0,0,0,6.02.98,18.969,18.969,0,0,0,6.02-.97,2.411,2.411,0,0,0,1.3-3.54Z" transform="translate(175.311 190.9)" fill="#00aaeb" opacity="0.77"/>
      <path id="Vector-2" data-name="Vector" d="M4.45,1.32A6.1,6.1,0,0,0,2.22.9,5.884,5.884,0,0,0,0,1.32,2.5,2.5,0,0,1,2.22,0,2.519,2.519,0,0,1,4.45,1.32Z" transform="translate(180.8 190)" fill="#00aaeb"/>
      <path id="Vector-3" data-name="Vector" d="M5.65.01A3.014,3.014,0,0,1,2.82,2,2.965,2.965,0,0,1,.7,1.11,2.761,2.761,0,0,1,0,0C.13.02.26.03.4.05c.23.03.47.06.71.08.57.05,1.15.08,1.73.08S3.98.18,4.54.13c.21-.02.42-.03.62-.06Z" transform="translate(180.18 208)" fill="#00aaeb"/>
    </g>
  </g>
</svg>
