<svg xmlns="http://www.w3.org/2000/svg" xmlns:xlink="http://www.w3.org/1999/xlink" width="35.268" height="31.196" viewBox="0 0 35.268 31.196">
  <defs>
    <filter id="Base" x="1.469" y="6.943" width="32.349" height="24.253" filterUnits="userSpaceOnUse">
      <feOffset dy="2" input="SourceAlpha"/>
      <feGaussianBlur stdDeviation="2.5" result="blur"/>
      <feFlood flood-color="#26334d" flood-opacity="0.031"/>
      <feComposite operator="in" in2="blur"/>
      <feComposite in="SourceGraphic"/>
    </filter>
    <filter id="Base-2" x="0" y="1.324" width="35.268" height="19.627" filterUnits="userSpaceOnUse">
      <feOffset dy="2" input="SourceAlpha"/>
      <feGaussianBlur stdDeviation="2.5" result="blur-2"/>
      <feFlood flood-color="#26334d" flood-opacity="0.031"/>
      <feComposite operator="in" in2="blur-2"/>
      <feComposite in="SourceGraphic"/>
    </filter>
    <filter id="Base-3" x="7.821" y="1.324" width="19.626" height="29.872" filterUnits="userSpaceOnUse">
      <feOffset dy="2" input="SourceAlpha"/>
      <feGaussianBlur stdDeviation="2.5" result="blur-3"/>
      <feFlood flood-color="#26334d" flood-opacity="0.031"/>
      <feComposite operator="in" in2="blur-3"/>
      <feComposite in="SourceGraphic"/>
    </filter>
  </defs>
  <g id="Group_3590" data-name="anassjalil6" transform="translate(-1633.23 -55.425)">
    <g transform="matrix(1, 0, 0, 1, 1633.23, 55.43)" filter="url(#Base)">
      <path id="Base-4" data-name="Base" d="M0,0H17.349a0,0,0,0,1,0,0V6.253a3,3,0,0,1-3,3H3a3,3,0,0,1-3-3V0A0,0,0,0,1,0,0Z" transform="translate(8.97 12.44)" fill="#00aaeb" opacity="0.8"/>
    </g>
    <g transform="matrix(1, 0, 0, 1, 1633.23, 55.43)" filter="url(#Base-2)">
      <rect id="Base-5" data-name="Base" width="20.268" height="4.627" rx="2.313" transform="translate(7.5 6.82)" fill="#00aaeb" opacity="0.8"/>
    </g>
    <g id="Group_3577" data-name="Group 3577" transform="translate(1642.297 55.425)">
      <path id="Subtraction_8" data-name="Subtraction 8" d="M1.135,6.56C.8,6.56.547,6.551.4,6.544c-.2-.01-.328-.074-.375-.192C-.161,5.9.886,4.79.9,4.778c.227-.634,1.685-3.6,2.822-4.418A1.8,1.8,0,0,1,4.789,0,3.681,3.681,0,0,1,7.226,1.334,3.361,3.361,0,0,1,8.335,3.989,2.091,2.091,0,0,1,7.076,5.5,14.942,14.942,0,0,1,1.135,6.56ZM4.859,1.342a1.262,1.262,0,0,0-.542.125c-1.229.58-2.418,3.486-2.43,3.515.108-.078.223-.169.344-.266a8.374,8.374,0,0,1,2.744-1.53c.946-.335.963-.863.927-1.074a1.035,1.035,0,0,0-1.043-.769Z" transform="translate(8.824 0.519)" fill="#00aaeb"/>
      <path id="Subtraction_9" data-name="Subtraction 9" d="M1.276,0C.9,0,.615.01.446.018.219.029.077.1.024.24c-.2.525.972,1.811.984,1.823C1.263,2.8,2.9,6.228,4.181,7.181a1.984,1.984,0,0,0,1.2.417,4.1,4.1,0,0,0,2.74-1.545A3.952,3.952,0,0,0,9.371,2.978,2.407,2.407,0,0,0,7.955,1.225C5.83.119,2.576,0,1.276,0ZM5.463,6.044A1.385,1.385,0,0,1,4.853,5.9C3.471,5.229,2.135,1.862,2.122,1.828c.122.09.25.2.386.309A9.35,9.35,0,0,0,5.593,3.909c1.063.388,1.083,1,1.042,1.244a1.169,1.169,0,0,1-1.172.891Z" transform="translate(9.398 7.599) rotate(180)" fill="#00aaeb"/>
      <path id="Path_3731" data-name="Path 3731" d="M1647.436-2066.686c.2-.438-.033-1.037,1.294-.819s1.149.394,1.149.394a5.424,5.424,0,0,1-.145,1.986c-.274.495-2.045.346-2.5.2S1647.233-2066.248,1647.436-2066.686Z" transform="translate(-1639.748 2072.781)" fill="#00aaeb"/>
    </g>
    <g transform="matrix(1, 0, 0, 1, 1633.23, 55.43)" filter="url(#Base-3)">
      <rect id="Base-6" data-name="anassjalil6" width="14.872" height="4.627" transform="translate(19.95 6.82) rotate(90)" fill="#00aaeb" opacity="0.84"/>
    </g>
  </g>
</svg>
