<?xml version="1.0" encoding="utf-8"?>
<!-- Generator: Adobe Illustrator 24.0.0, SVG Export Plug-In . SVG Version: 6.00 Build 0)  -->
<svg version="1.1" id="Layer_1" xmlns="http://www.w3.org/2000/svg" xmlns:xlink="http://www.w3.org/1999/xlink" x="0px" y="0px"
	 viewBox="0 0 133.9 44.9" style="enable-background:new 0 0 133.9 44.9;" xml:space="preserve">
<style type="text/css">
	.st0{fill:#FFFFFF;}
	.st1{fill-rule:evenodd;clip-rule:evenodd;fill:url(#SVGID_1_);}
</style>
<g>
	<path class="st0" d="M76.8,18.5c1.3,1.1,2.8,1.6,4.5,1.6c1,0,1.8-0.2,2.3-0.5s0.7-0.8,0.7-1.4c0-0.5-0.2-1-0.6-1.4
		c-0.4-0.4-1.4-1-3-1.6c-1.4-0.6-2.3-1.3-2.9-2c-0.6-0.8-0.9-1.6-0.9-2.7c0-1.5,0.6-2.6,1.7-3.5c1.1-0.8,2.6-1.2,4.5-1.2
		c1.7,0,3,0.2,3.9,0.6v3c-1.1-0.7-2.3-1.1-3.8-1.1c-0.9,0-1.6,0.2-2.1,0.5s-0.8,0.8-0.8,1.4c0,0.5,0.2,0.9,0.6,1.3
		c0.4,0.4,1.3,0.9,2.7,1.5c1.6,0.7,2.7,1.4,3.3,2.2c0.6,0.8,0.9,1.7,0.9,2.7c0,1.5-0.5,2.7-1.6,3.5c-1.1,0.8-2.6,1.2-4.6,1.2
		c-1.8,0-3.3-0.3-4.5-0.9V18.5z"/>
	<path class="st0" d="M96,22.3c-0.5,0.3-1.3,0.4-2.2,0.4c-2.4,0-3.6-1.3-3.6-3.8v-5.8h-1.9v-2.4h1.9V8.1l3.1-0.9v3.5H96v2.4h-2.7
		v5.3c0,1.3,0.5,1.9,1.5,1.9c0.4,0,0.8-0.1,1.2-0.4V22.3z"/>
	<path class="st0" d="M98.5,11.5c0.5-0.3,1.2-0.5,2-0.7c0.8-0.2,1.6-0.3,2.3-0.3c3.2,0,4.7,1.6,4.7,4.8v7.2h-3v-1.7h-0.1
		c-0.8,1.3-2,2-3.5,2c-1.1,0-2-0.3-2.7-1c-0.7-0.6-1-1.5-1-2.5c0-2.2,1.3-3.5,4-3.9l3.3-0.4c0-1.5-0.7-2.2-2.2-2.2
		c-1.4,0-2.7,0.4-3.9,1.3V11.5z M102.3,17.1c-1.3,0.2-2,0.8-2,1.8c0,0.5,0.2,0.8,0.5,1.1s0.7,0.4,1.3,0.4c0.7,0,1.4-0.3,1.8-0.8
		c0.5-0.5,0.7-1.2,0.7-2v-0.9L102.3,17.1z"/>
	<path class="st0" d="M121.7,22.4h-3.8l-4.1-5.7h0v5.7h-3.1V5.1h3.1v11h0l3.9-5.4h3.7l-4.5,5.5L121.7,22.4z"/>
	<path class="st0" d="M133,17.4h-7.8c0.1,2,1.3,3,3.4,3c1.3,0,2.5-0.3,3.5-1v2.4c-1.1,0.6-2.5,0.9-4.2,0.9c-1.8,0-3.2-0.5-4.2-1.6
		c-1-1.1-1.5-2.5-1.5-4.4c0-1.9,0.5-3.4,1.6-4.5c1.1-1.2,2.4-1.7,4.1-1.7c1.6,0,2.9,0.5,3.8,1.5c0.9,1,1.4,2.4,1.4,4.1V17.4z
		 M130.1,15.4c0-1.9-0.8-2.8-2.3-2.8c-0.6,0-1.2,0.3-1.7,0.8c-0.5,0.5-0.8,1.2-0.9,2H130.1z"/>
</g>
<linearGradient id="SVGID_1_" gradientUnits="userSpaceOnUse" x1="0.2515" y1="22.6425" x2="90.6565" y2="22.6425">
	<stop  offset="1.735702e-02" style="stop-color:#608DE3"/>
	<stop  offset="1" style="stop-color:#8AD6F5"/>
</linearGradient>
<path class="st1" d="M32.5,19.8c-3.3,7.5-2.8,3.1-2.9-2.3C29.3-2.2,10.2,0.3,3.8,8.3c-6,7.5,0.2,18.8,8.3,11.6
	c6.1-5.4-4.2-6,0.3-10.6c8.9-9.1,7.5,7.5,4.2,14.6c-0.8,1.7-1.7,3-2.6,4.1c-1,1-1.9,1.5-2.8,1.5c-1.7-0.1-2.1-1.2-1.5-3.5
	c0.1-0.3-0.1-0.5-0.6-0.8c-0.4-0.3-1-0.5-1.6-0.6c-0.7-0.2-1.3-0.2-1.8-0.2c-1.3,0.1-2.4,0.5-3.4,1.3c-1,0.8-1.6,1.9-1.9,3.3
	c-1.6,10.1,12.9,14.1,19.3-0.5c4.4-10,4.1-19.5,2.4,1.1c-0.8,9.3,7,7.2,9.4,1.4c8.9-21.7,5.8-6.8,5.1,1.3c-0.5,6.2,2.1,4.3,6,1.4
	c3.7-2.7,4.2-7.3,4.2-13.9C46.8,9.4,37.9,8.2,32.5,19.8L32.5,19.8z M73,7.9c0-0.2-0.1-0.2-0.2-0.2c-1.4,0.1-2.6,0.1-3.6,0.1
	c-6.5,0.1-5.5,8.4-5.9,12.6c-0.1,1.3-0.5,2.4-1,3.4c-0.7,1.3-1.5,1.9-2.3,1.8c-1.6-0.2-0.8-4-0.5-8.4c0.7-9.5-3.5-17.5-13.6-16.9
	c-7.9,0.5-13.2,11-7.4,8.6c5.4-2.3,8.6,0.8,10.3,4.6c2.9,6.7-1.2,14,2.3,17.4c1.2,1.2,2.8,1.4,4.4,1.3c1.3-0.1,2.6-0.6,4-1.5
	c1.3-0.9,2.5-2.3,3.5-4.2c-0.2,3.1-0.8,7-1.7,8.9c-25.2-7.8-22,10.7-5.3,9.5c3.6-0.3,6.7-1.4,9.5-3.6c3,0.9,5.8,1.5,8.5,1.7
	c6.3,0.5,19-3.2,16.4-12.2c-1.7-6.1-11.3-9.8-15.6,0.8c-0.1,0.1,0.1,0.6,0.6,1.4c0.5,0.8,0.6,1.5,0.5,2.2c-0.3,1.3-1.2,2.1-2.7,2.4
	c-1.5,0.3-3,0.3-4.5-0.2C72.6,30.4,72.5,16,73,7.9L73,7.9z M59.3,39c-0.1,0.1-0.2,0.2-0.4,0.3C50.4,44.5,43.8,34.4,59.3,39L59.3,39z
	"/>
</svg>
