<svg xmlns="http://www.w3.org/2000/svg" xmlns:xlink="http://www.w3.org/1999/xlink" width="17.984" height="18.001" viewBox="0 0 17.984 18.001">
  <defs>
    <clipPath id="clip-path">
      <rect id="Rectangle_1368" data-name="Rectangle 1368" width="17.984" height="18.001" transform="translate(0 0)" fill="#61617a"/>
    </clipPath>
  </defs>
  <g id="Group_3613" data-name="Group 3613" transform="translate(0 0)">
    <g id="Group_3612" data-name="Group 3612" clip-path="url(#clip-path)">
      <path id="Path_3738" data-name="Path 3738" d="M8.99,0H8.977a.994.994,0,0,0-.993.994V9.007A.994.994,0,0,0,8.977,10H8.99a.994.994,0,0,0,.994-.993V.994A.994.994,0,0,0,8.99,0m5.136,2.858-.008.008A.989.989,0,0,0,14.1,4.248,6.915,6.915,0,0,1,15.984,9,7,7,0,1,1,3.866,4.232a.985.985,0,0,0-.021-1.371,1,1,0,0,0-1.439.024,9,9,0,1,0,13.163,0,1.006,1.006,0,0,0-1.443-.029" fill="#61617a"/>
    </g>
  </g>
</svg>
