<svg xmlns="http://www.w3.org/2000/svg" width="24" height="24" viewBox="0 0 24 24">
  <g id="vuesax_bulk_volume-slash" data-name="vuesax/bulk/volume-slash" transform="translate(-428 -188)">
    <g id="volume-slash">
      <path id="Vector" d="M.75,8.078a.76.76,0,0,1-.45-.15.75.75,0,0,1-.15-1.05,5.926,5.926,0,0,0,.72-5.84A.748.748,0,1,1,2.25.458a7.456,7.456,0,0,1-.9,7.33A.758.758,0,0,1,.75,8.078Z" transform="translate(445.25 196.672)" fill="#97a1c2"/>
      <path id="Vector-2" data-name="Vector" d="M.75,12.2a.76.76,0,0,1-.45-.15A.75.75,0,0,1,.15,11a10.129,10.129,0,0,0,1.23-9.96A.748.748,0,0,1,2.76.458,11.618,11.618,0,0,1,1.35,11.9.726.726,0,0,1,.75,12.2Z" transform="translate(447.08 195.052)" fill="#97a1c2"/>
      <path id="Vector-3" data-name="Vector" d="M5.138.294A1,1,0,0,1,6.848,1v2.93a3.9,3.9,0,0,1-1.73,3.63,3,3,0,0,1-1.47.37,4.832,4.832,0,0,1-2.54-.82l-.64-.4a1,1,0,0,1-.18-1.55Z" transform="translate(436.902 200.666)" fill="#97a1c2" opacity="0.4"/>
      <path id="Vector-4" data-name="Vector" d="M12.77.372a3.911,3.911,0,0,0-4.01.45L5.84,2.652a1.3,1.3,0,0,1-.66.19H3.75A3.381,3.381,0,0,0,0,6.592v4a3.381,3.381,0,0,0,3.75,3.75H5l9.5-9.5V4A3.9,3.9,0,0,0,12.77.372Z" transform="translate(429.25 191.408)" fill="#97a1c2" opacity="0.4"/>
      <path id="Vector-5" data-name="Vector" d="M19.765.225a.773.773,0,0,0-1.09,0L.225,18.685a.773.773,0,0,0,0,1.09.791.791,0,0,0,.54.22.758.758,0,0,0,.54-.23L19.765,1.3A.743.743,0,0,0,19.765.225Z" transform="translate(430.005 190.005)" fill="#97a1c2"/>
      <path id="Vector-6" data-name="Vector" d="M0,0H24V24H0Z" transform="translate(428 188)" fill="none" opacity="0"/>
    </g>
  </g>
</svg>
